<svg xmlns="http://www.w3.org/2000/svg" viewBox="0 0 410 404"><defs><linearGradient id="a" x1=".026%" x2="57.637%" y1="22.763%" y2="78.411%"><stop stop-color="#41D1FF" offset="0"/><stop stop-color="#BD34FE" offset="1"/></linearGradient><linearGradient id="b" x1="43.376%" x2="50.316%" y1="2.242%" y2="89.03%"><stop stop-color="#FFEA83" offset="0"/><stop stop-color="#FFDD35" offset=".083"/><stop stop-color="#FFA800" offset="1"/></linearGradient></defs><path fill="url(#a)" d="M399.641 59.525 215.643 388.545c-5.51 9.78-19.622 9.767-25.116-.022L10.38 59.556c-5.681-10.063 2.841-22.177 14.132-19.692l170.28 39.401a13.86 13.86 0 0 0 6.207-.001l184.527-39.39c11.314-2.413 19.849 10.007 14.165 20.068Z"/><path fill="url(#b)" d="m292.965 1.574-110.13 23.706a7.513 7.513 0 0 0-5.913 8.746l21.255 136.88a7.513 7.513 0 0 0 9.304 6.105l30.578-8.394c5.114-1.403 9.2 4.088 6.824 8.746l-45.351 88.406c-2.837 5.527 3.977 11.006 8.927 6.836l11.512-9.42c3.299-2.7 8.218-1.953 10.341 1.68l62.708 106.788c3.844 6.544 13.685 3.391 12.574-4.289l-23.449-161.22a7.513 7.513 0 0 1 2.178-6.232l46.906-45.43c4.375-4.243 1.635-11.733-4.278-12.722l-32.575-5.502c-5.192-.878-7.452-7.289-3.637-11.032l48.587-46.713c4.17-4.01 1.927-11.164-3.774-12.18l-121.5-22.296Z"/></svg>
